<svg id="visual" viewBox="0 0 900 600" width="900" height="600" xmlns="http://www.w3.org/2000/svg" xmlns:xlink="http://www.w3.org/1999/xlink" version="1.1"><rect x="0" y="0" width="900" height="600" fill="#001220"></rect><defs><linearGradient id="grad1_0" x1="33.3%" y1="0%" x2="100%" y2="100%"><stop offset="20%" stop-color="#001220" stop-opacity="1"></stop><stop offset="80%" stop-color="#001220" stop-opacity="1"></stop></linearGradient></defs><defs><linearGradient id="grad2_0" x1="0%" y1="0%" x2="66.7%" y2="100%"><stop offset="20%" stop-color="#001220" stop-opacity="1"></stop><stop offset="80%" stop-color="#001220" stop-opacity="1"></stop></linearGradient></defs><g transform="translate(900, 0)"><path d="M0 486.7C-56.6 456.1 -113.1 425.4 -164.9 398.2C-216.7 371 -263.8 347.4 -314.7 314.7C-365.6 282 -420.4 240.2 -449.7 186.3C-479 132.3 -482.9 66.2 -486.7 0L0 0Z" fill="#FBAE3C"></path></g><g transform="translate(0, 600)"><path d="M0 -486.7C60.5 -470.7 121 -454.7 179.1 -432.4C237.2 -410 292.7 -381.4 340.1 -340.1C387.5 -298.9 426.6 -245.1 449.7 -186.3C472.8 -127.5 479.8 -63.7 486.7 0L0 0Z" fill="#FBAE3C"></path></g></svg>