<svg id="visual" viewBox="0 0 900 600" width="900" height="600" xmlns="http://www.w3.org/2000/svg" xmlns:xlink="http://www.w3.org/1999/xlink" version="1.1"><rect x="0" y="0" width="900" height="600" fill="#001220"></rect><path d="M0 308L21.5 294.8C43 281.7 86 255.3 128.8 248.2C171.7 241 214.3 253 257.2 266.7C300 280.3 343 295.7 385.8 300.7C428.7 305.7 471.3 300.3 514.2 296.8C557 293.3 600 291.7 642.8 280.8C685.7 270 728.3 250 771.2 252.5C814 255 857 280 878.5 292.5L900 305L900 601L878.5 601C857 601 814 601 771.2 601C728.3 601 685.7 601 642.8 601C600 601 557 601 514.2 601C471.3 601 428.7 601 385.8 601C343 601 300 601 257.2 601C214.3 601 171.7 601 128.8 601C86 601 43 601 21.5 601L0 601Z" fill="#0066ff"></path><path d="M0 333L21.5 341.8C43 350.7 86 368.3 128.8 362.3C171.7 356.3 214.3 326.7 257.2 311.7C300 296.7 343 296.3 385.8 305.8C428.7 315.3 471.3 334.7 514.2 342.5C557 350.3 600 346.7 642.8 349C685.7 351.3 728.3 359.7 771.2 356.7C814 353.7 857 339.3 878.5 332.2L900 325L900 601L878.5 601C857 601 814 601 771.2 601C728.3 601 685.7 601 642.8 601C600 601 557 601 514.2 601C471.3 601 428.7 601 385.8 601C343 601 300 601 257.2 601C214.3 601 171.7 601 128.8 601C86 601 43 601 21.5 601L0 601Z" fill="#0080ff"></path><path d="M0 440L21.5 439.2C43 438.3 86 436.7 128.8 435C171.7 433.3 214.3 431.7 257.2 435.7C300 439.7 343 449.3 385.8 451.7C428.7 454 471.3 449 514.2 443.2C557 437.3 600 430.7 642.8 430.8C685.7 431 728.3 438 771.2 431.3C814 424.7 857 404.3 878.5 394.2L900 384L900 601L878.5 601C857 601 814 601 771.2 601C728.3 601 685.7 601 642.8 601C600 601 557 601 514.2 601C471.3 601 428.7 601 385.8 601C343 601 300 601 257.2 601C214.3 601 171.7 601 128.8 601C86 601 43 601 21.5 601L0 601Z" fill="#1e97fd"></path><path d="M0 519L21.5 520.8C43 522.7 86 526.3 128.8 525C171.7 523.7 214.3 517.3 257.2 515.7C300 514 343 517 385.8 513.2C428.7 509.3 471.3 498.7 514.2 489.5C557 480.3 600 472.7 642.8 477.3C685.7 482 728.3 499 771.2 506C814 513 857 510 878.5 508.5L900 507L900 601L878.5 601C857 601 814 601 771.2 601C728.3 601 685.7 601 642.8 601C600 601 557 601 514.2 601C471.3 601 428.7 601 385.8 601C343 601 300 601 257.2 601C214.3 601 171.7 601 128.8 601C86 601 43 601 21.5 601L0 601Z" fill="#4facf7"></path></svg>