<svg id="visual" viewBox="0 0 900 600" width="900" height="600" xmlns="http://www.w3.org/2000/svg" xmlns:xlink="http://www.w3.org/1999/xlink" version="1.1"><path d="M0 169L113 169L113 193L225 193L225 85L338 85L338 205L450 205L450 49L563 49L563 187L675 187L675 175L788 175L788 205L900 205L900 67L900 0L900 0L788 0L788 0L675 0L675 0L563 0L563 0L450 0L450 0L338 0L338 0L225 0L225 0L113 0L113 0L0 0Z" fill="#cccccc"></path><path d="M0 331L113 331L113 337L225 337L225 205L338 205L338 271L450 271L450 247L563 247L563 343L675 343L675 373L788 373L788 331L900 331L900 295L900 65L900 203L788 203L788 173L675 173L675 185L563 185L563 47L450 47L450 203L338 203L338 83L225 83L225 191L113 191L113 167L0 167Z" fill="#adc1b9"></path><path d="M0 469L113 469L113 391L225 391L225 337L338 337L338 349L450 349L450 415L563 415L563 445L675 445L675 445L788 445L788 451L900 451L900 445L900 293L900 329L788 329L788 371L675 371L675 341L563 341L563 245L450 245L450 269L338 269L338 203L225 203L225 335L113 335L113 329L0 329Z" fill="#8eb7a7"></path><path d="M0 547L113 547L113 415L225 415L225 427L338 427L338 415L450 415L450 433L563 433L563 475L675 475L675 469L788 469L788 523L900 523L900 505L900 443L900 449L788 449L788 443L675 443L675 443L563 443L563 413L450 413L450 347L338 347L338 335L225 335L225 389L113 389L113 467L0 467Z" fill="#6dab95"></path><path d="M0 571L113 571L113 559L225 559L225 517L338 517L338 529L450 529L450 505L563 505L563 571L675 571L675 541L788 541L788 559L900 559L900 541L900 503L900 521L788 521L788 467L675 467L675 473L563 473L563 431L450 431L450 413L338 413L338 425L225 425L225 413L113 413L113 545L0 545Z" fill="#48a084"></path><path d="M0 601L113 601L113 601L225 601L225 601L338 601L338 601L450 601L450 601L563 601L563 601L675 601L675 601L788 601L788 601L900 601L900 601L900 539L900 557L788 557L788 539L675 539L675 569L563 569L563 503L450 503L450 527L338 527L338 515L225 515L225 557L113 557L113 569L0 569Z" fill="#009473"></path></svg>